# xmcd
#
# Track frame offsets: 
#        150
#        10309
#        25465
#        31986
#        45882
#        63234
#        79903
#        94628
#        113775
#        129190
#        142230
#        158014
#
# Disc length: 2382 seconds
#
# Revision: 0
# Processed by: cddbd v1.5.2PL0 Copyright (c) Steve Scherf et al.
# Submitted via: ExactAudioCopy v1.0b3
#
DISCID=90094c0c
DTITLE=The Resistance - Scars
DYEAR=2013
DGENRE=Death Metal
TTITLE0=Clearing The Slate
TTITLE1=Your Demise
TTITLE2=To The Death
TTITLE3=Expand Or Expire
TTITLE4=Imperfected
TTITLE5=I Bend - You Break
TTITLE6=The Serpent King
TTITLE7=Eye For An Eye
TTITLE8=My Madness
TTITLE9=Warmonger
TTITLE10=Scars
TTITLE11=(I Will) Die Alone
EXTD=
EXTT0=
EXTT1=
EXTT2=
EXTT3=
EXTT4=
EXTT5=
EXTT6=
EXTT7=
EXTT8=
EXTT9=
EXTT10=
EXTT11=
PLAYORDER=
